<svg width="33" height="31" viewBox="0 0 33 31" fill="none" xmlns="http://www.w3.org/2000/svg">
<path opacity="0.8" d="M31.1567 0.64487C30.0124 0.45967 28.8536 0.36434 27.6925 0.35987C23.7308 0.356818 19.8517 1.42423 16.5177 3.43487C13.175 1.45063 9.29658 0.409416 5.34286 0.43487C4.18171 0.43934 3.02297 0.53467 1.87866 0.71987C1.50384 0.780587 1.1644 0.965057 0.921484 1.24006C0.678564 1.51506 0.548123 1.86252 0.553652 2.21987V20.2199C0.550233 20.4403 0.598553 20.6587 0.695173 20.8595C0.791793 21.0604 0.93434 21.2388 1.11267 21.382C1.291 21.5252 1.50073 21.6297 1.72694 21.6881C1.95314 21.7465 2.19027 21.7574 2.42144 21.7199C4.70912 21.3477 7.05292 21.4094 9.31481 21.9015C11.5767 22.3935 13.7109 23.3059 15.5918 24.5849L15.7833 24.6899H15.9589C16.136 24.7592 16.3259 24.7949 16.5177 24.7949C16.7095 24.7949 16.8994 24.7592 17.0764 24.6899H17.252L17.4436 24.5849C19.3113 23.2773 21.4394 22.3354 23.7017 21.8149C25.964 21.2944 28.3145 21.206 30.6139 21.5549C30.8451 21.5924 31.0822 21.5815 31.3084 21.5231C31.5346 21.4647 31.7443 21.3602 31.9227 21.217C32.101 21.0738 32.2435 20.8954 32.3402 20.6945C32.4368 20.4937 32.4851 20.2753 32.4817 20.0549V2.05487C32.4651 1.7131 32.3246 1.38694 32.0836 1.13048C31.8426 0.874017 31.5155 0.702675 31.1567 0.64487ZM14.9213 20.5799C11.9677 19.1199 8.68016 18.3579 5.34286 18.3599C4.81604 18.3599 4.28923 18.3599 3.74645 18.3599V3.35987C4.27815 3.33108 4.81116 3.33108 5.34286 3.35987C8.7486 3.35633 12.08 4.29541 14.9213 6.05987V20.5799ZM29.2889 18.4199C28.7461 18.4199 28.2193 18.4199 27.6925 18.4199C24.3552 18.4179 21.0676 19.1799 18.1141 20.6399V6.05987C20.9553 4.29541 24.2867 3.35633 27.6925 3.35987C28.2242 3.33108 28.7572 3.33108 29.2889 3.35987V18.4199ZM31.1567 24.6449C30.0124 24.4597 28.8536 24.3643 27.6925 24.3599C23.7308 24.3568 19.8517 25.4242 16.5177 27.4349C13.1836 25.4242 9.30454 24.3568 5.34286 24.3599C4.18171 24.3643 3.02297 24.4597 1.87866 24.6449C1.67086 24.6759 1.47162 24.7451 1.29241 24.8487C1.11319 24.9523 0.957544 25.0882 0.834406 25.2485C0.711268 25.4088 0.623072 25.5904 0.57489 25.7828C0.526708 25.9753 0.519491 26.1748 0.553652 26.3699C0.634779 26.7594 0.876908 27.1028 1.227 27.3249C1.57709 27.5471 2.0066 27.6297 2.42144 27.5549C4.70912 27.1827 7.05292 27.2444 9.31481 27.7365C11.5767 28.2285 13.7109 29.1409 15.5918 30.4199C15.8621 30.6007 16.1858 30.6979 16.5177 30.6979C16.8496 30.6979 17.1732 30.6007 17.4436 30.4199C19.3244 29.1409 21.4586 28.2285 23.7205 27.7365C25.9824 27.2444 28.3262 27.1827 30.6139 27.5549C31.0287 27.6297 31.4582 27.5471 31.8083 27.3249C32.1584 27.1028 32.4005 26.7594 32.4817 26.3699C32.5158 26.1748 32.5086 25.9753 32.4604 25.7828C32.4123 25.5904 32.3241 25.4088 32.2009 25.2485C32.0778 25.0882 31.9221 24.9523 31.7429 24.8487C31.5637 24.7451 31.3645 24.6759 31.1567 24.6449Z" fill="white"/>
</svg>
